<?xml version="1.0" encoding="utf-8"?>
<svg xmlns:xlink="http://www.w3.org/1999/xlink" version="1.1" class="highcharts-root" style="font-family: sans-serif; font-size: 1rem;" xmlns="http://www.w3.org/2000/svg" width="1185.6" height="562.4" viewBox="0 0 1200 600" aria-label="Interactive chart" aria-hidden="false">
  <desc aria-hidden="true">Created with Highcharts 11.2.0</desc>
  <defs aria-hidden="true">
    <filter id="highcharts-drop-shadow-1">
      <feDropShadow dx="1" dy="1" flood-color="#000000" flood-opacity="0.75" stdDeviation="2.5"></feDropShadow>
    </filter>
    <clipPath id="highcharts-wkb9yzu-462-">
      <rect x="0" y="0" width="1114" height="475" fill="none"></rect>
    </clipPath>
    <clipPath id="highcharts-wkb9yzu-489-">
      <rect x="0" y="0" width="1114" height="475" fill="none"></rect>
    </clipPath>
  </defs>
  <rect fill="rgb(255, 255, 255)" fill-opacity=" 1" class="highcharts-background" filter="none" x="0" y="0" width="1200" height="600" rx="0" ry="0" aria-hidden="true"></rect>
  <rect fill="#FFFFFF" class="highcharts-plot-background" x="76" y="53" width="1114" height="475" filter="none" aria-hidden="true"></rect>
  <g class="highcharts-pane-group" data-z-index="0" aria-hidden="true"></g>
  <g class="highcharts-plot-bands-0" data-z-index="0" aria-hidden="true">
    <path fill="#D8D8D8" class="highcharts-plot-band " d="M 75.5 53 L 75.5 528 L 75.5 528 L 75.5 53 Z"></path>
    <path fill="#D8D8D8" class="highcharts-plot-band " d="M 75.5 53 L 75.5 528 L 75.5 528 L 75.5 53 Z"></path>
    <path fill="#D8D8D8" class="highcharts-plot-band " d="M 75.5 53 L 75.5 528 L 75.5 528 L 75.5 53 Z"></path>
  </g>
  <g class="highcharts-grid highcharts-xaxis-grid" data-z-index="1" aria-hidden="true">
    <path fill="none" stroke="#e6e6e6" stroke-width="0" stroke-dasharray="none" data-z-index="1" class="highcharts-grid-line" d="M 125.5 53 L 125.5 528" opacity="1"></path>
    <path fill="none" stroke="#e6e6e6" stroke-width="0" stroke-dasharray="none" data-z-index="1" class="highcharts-grid-line" d="M 218.5 53 L 218.5 528" opacity="1"></path>
    <path fill="none" stroke="#e6e6e6" stroke-width="0" stroke-dasharray="none" data-z-index="1" class="highcharts-grid-line" d="M 310.5 53 L 310.5 528" opacity="1"></path>
    <path fill="none" stroke="#e6e6e6" stroke-width="0" stroke-dasharray="none" data-z-index="1" class="highcharts-grid-line" d="M 404.5 53 L 404.5 528" opacity="1"></path>
    <path fill="none" stroke="#e6e6e6" stroke-width="0" stroke-dasharray="none" data-z-index="1" class="highcharts-grid-line" d="M 497.5 53 L 497.5 528" opacity="1"></path>
    <path fill="none" stroke="#e6e6e6" stroke-width="0" stroke-dasharray="none" data-z-index="1" class="highcharts-grid-line" d="M 588.5 53 L 588.5 528" opacity="1"></path>
    <path fill="none" stroke="#e6e6e6" stroke-width="0" stroke-dasharray="none" data-z-index="1" class="highcharts-grid-line" d="M 682.5 53 L 682.5 528" opacity="1"></path>
    <path fill="none" stroke="#e6e6e6" stroke-width="0" stroke-dasharray="none" data-z-index="1" class="highcharts-grid-line" d="M 775.5 53 L 775.5 528" opacity="1"></path>
    <path fill="none" stroke="#e6e6e6" stroke-width="0" stroke-dasharray="none" data-z-index="1" class="highcharts-grid-line" d="M 867.5 53 L 867.5 528" opacity="1"></path>
    <path fill="none" stroke="#e6e6e6" stroke-width="0" stroke-dasharray="none" data-z-index="1" class="highcharts-grid-line" d="M 961.5 53 L 961.5 528" opacity="1"></path>
    <path fill="none" stroke="#e6e6e6" stroke-width="0" stroke-dasharray="none" data-z-index="1" class="highcharts-grid-line" d="M 1054.5 53 L 1054.5 528" opacity="1"></path>
    <path fill="none" stroke="#e6e6e6" stroke-width="0" stroke-dasharray="none" data-z-index="1" class="highcharts-grid-line" d="M 1145.5 53 L 1145.5 528" opacity="1"></path>
  </g>
  <g class="highcharts-grid highcharts-yaxis-grid" data-z-index="1" aria-hidden="true">
    <path fill="none" stroke="#CEC6B9" stroke-width="1" stroke-dasharray="1,3" data-z-index="1" class="highcharts-grid-line" d="M 76 528.5 L 1190 528.5" opacity="1"></path>
    <path fill="none" stroke="#CEC6B9" stroke-width="1" stroke-dasharray="1,3" data-z-index="1" class="highcharts-grid-line" d="M 76 460.5 L 1190 460.5" opacity="1"></path>
    <path fill="none" stroke="#CEC6B9" stroke-width="1" stroke-dasharray="1,3" data-z-index="1" class="highcharts-grid-line" d="M 76 392.5 L 1190 392.5" opacity="1"></path>
    <path fill="none" stroke="#CEC6B9" stroke-width="1" stroke-dasharray="1,3" data-z-index="1" class="highcharts-grid-line" d="M 76 324.5 L 1190 324.5" opacity="1"></path>
    <path fill="none" stroke="#CEC6B9" stroke-width="1" stroke-dasharray="1,3" data-z-index="1" class="highcharts-grid-line" d="M 76 257.5 L 1190 257.5" opacity="1"></path>
    <path fill="none" stroke="#CEC6B9" stroke-width="1" stroke-dasharray="1,3" data-z-index="1" class="highcharts-grid-line" d="M 76 189.5 L 1190 189.5" opacity="1"></path>
    <path fill="none" stroke="#CEC6B9" stroke-width="1" stroke-dasharray="1,3" data-z-index="1" class="highcharts-grid-line" d="M 76 121.5 L 1190 121.5" opacity="1"></path>
    <path fill="none" stroke="#CEC6B9" stroke-width="1" stroke-dasharray="1,3" data-z-index="1" class="highcharts-grid-line" d="M 76 52.5 L 1190 52.5" opacity="1"></path>
  </g>
  <rect fill="none" class="highcharts-plot-border" data-z-index="1" stroke="#cccccc" stroke-width="0" x="76" y="53" width="1114" height="475" aria-hidden="true"></rect>
  <g class="highcharts-axis highcharts-xaxis" data-z-index="2" aria-hidden="true">
    <path fill="none" class="highcharts-tick" stroke="rgb(30, 41, 59)" stroke-width="1.5" d="M 125.25 528 L 125.25 538" opacity="1"></path>
    <path fill="none" class="highcharts-tick" stroke="rgb(30, 41, 59)" stroke-width="1.5" d="M 218.25 528 L 218.25 538" opacity="1"></path>
    <path fill="none" class="highcharts-tick" stroke="rgb(30, 41, 59)" stroke-width="1.5" d="M 310.25 528 L 310.25 538" opacity="1"></path>
    <path fill="none" class="highcharts-tick" stroke="rgb(30, 41, 59)" stroke-width="1.5" d="M 404.25 528 L 404.25 538" opacity="1"></path>
    <path fill="none" class="highcharts-tick" stroke="rgb(30, 41, 59)" stroke-width="1.5" d="M 497.25 528 L 497.25 538" opacity="1"></path>
    <path fill="none" class="highcharts-tick" stroke="rgb(30, 41, 59)" stroke-width="1.5" d="M 588.25 528 L 588.25 538" opacity="1"></path>
    <path fill="none" class="highcharts-tick" stroke="rgb(30, 41, 59)" stroke-width="1.5" d="M 682.25 528 L 682.25 538" opacity="1"></path>
    <path fill="none" class="highcharts-tick" stroke="rgb(30, 41, 59)" stroke-width="1.5" d="M 775.25 528 L 775.25 538" opacity="1"></path>
    <path fill="none" class="highcharts-tick" stroke="rgb(30, 41, 59)" stroke-width="1.5" d="M 867.25 528 L 867.25 538" opacity="1"></path>
    <path fill="none" class="highcharts-tick" stroke="rgb(30, 41, 59)" stroke-width="1.5" d="M 961.25 528 L 961.25 538" opacity="1"></path>
    <path fill="none" class="highcharts-tick" stroke="rgb(30, 41, 59)" stroke-width="1.5" d="M 1054.25 528 L 1054.25 538" opacity="1"></path>
    <path fill="none" class="highcharts-tick" stroke="rgb(30, 41, 59)" stroke-width="1.5" d="M 1145.25 528 L 1145.25 538" opacity="1"></path>
    <path fill="none" class="highcharts-axis-line" stroke="rgb(30, 41, 59)" stroke-width="1.5" data-z-index="7" d="M 76 528.75 L 1190 528.75"></path>
  </g>
  <g class="highcharts-axis highcharts-yaxis" data-z-index="2" aria-hidden="true">
    <text x="23.63749885559082" data-z-index="7" text-anchor="middle" transform="translate(0,0) rotate(270 23.63749885559082 290.5)" class="highcharts-axis-title" style="color: rgb(51, 65, 85); font-size: 0.8em; fill: rgb(51, 65, 85);" y="290.5">Percent</text>
    <path fill="none" class="highcharts-axis-line" stroke="#CEC6B9" stroke-width="0" data-z-index="7" d="M 76 53 L 76 528"></path>
  </g>
  <g class="highcharts-series-group" data-z-index="3" filter="none" aria-hidden="false">
    <g class="highcharts-series highcharts-series-1 highcharts-line-series" data-z-index="1" opacity="2" transform="translate(76,53) scale(1 1)" clip-path="url(#highcharts-wkb9yzu-489-)" aria-hidden="true">
      <path fill="none" d="M 421.98006248891 177.06 L 490.57252199153 197.41 L 559.95924341522 209.05 L 630.10845628311 214.86 L 700.28943962786 220.68 L 768.88189913048 222.13 L 838.26862055416 223.59 L 908.41783342206 225.04 L 978.5988167668 225.04 L 1047.1912762694 225.04 L 1116.5779976931 226.49" class="highcharts-graph" data-z-index="1" stroke="#AA4643" stroke-width="2" stroke-dasharray="6,2" filter="none"></path>
    </g>
    <g class="highcharts-markers highcharts-series-1 highcharts-line-series" data-z-index="1" opacity="2" transform="translate(76,53) scale(1 1)" clip-path="none" aria-hidden="false" role="region" tabindex="-1" aria-label="U.S. CBO Model, line 2 of 7 with 11 data points." style="outline: none;">
      <path fill="#AA4643" d="M 419 176.00 L 423 176.00 L 423 177.71 L 419 177.71 Z" stroke="#ffffff" stroke-width="0" opacity="1" class="highcharts-point" tabindex="-1" role="img" aria-label="Wednesday,  1 Jan, 01:00, 4.25. U.S. CBO Model." style="outline: none;"></path>
      <path fill="#AA4643" d="M 488 196.57 L 492 196.57 L 492 198.29 L 488 198.29 Z" stroke="#ffffff" stroke-width="0" opacity="1" class="highcharts-point" tabindex="-1" role="img" aria-label="Tuesday,  1 Apr, 01:00, 4.11. U.S. CBO Model." style="outline: none;"></path>
      <path fill="#AA4643" d="M 557 208.14 L 561 208.14 L 561 209.86 L 557 209.86 Z" stroke="#ffffff" stroke-width="0" opacity="1" class="highcharts-point" tabindex="-1" role="img" aria-label="Tuesday,  1 Jul, 01:00, 4.03. U.S. CBO Model." style="outline: none;"></path>
      <path fill="#AA4643" d="M 628 214.14 L 632 214.14 L 632 215.86 L 628 215.86 Z" stroke="#ffffff" stroke-width="0" opacity="1" class="highcharts-point" tabindex="-1" role="img" aria-label="Wednesday,  1 Oct, 01:00, 3.99. U.S. CBO Model." style="outline: none;"></path>
      <path fill="#AA4643" d="M 698 219.71 L 702 219.71 L 702 221.43 L 698 221.43 Z" stroke="#ffffff" stroke-width="0" opacity="1" class="highcharts-point" tabindex="-1" role="img" aria-label="Thursday,  1 Jan, 01:00, 3.95. U.S. CBO Model." style="outline: none;"></path>
      <path fill="#AA4643" d="M 766 221.43 L 770 221.43 L 770 223.14 L 766 223.14 Z" stroke="#ffffff" stroke-width="0" opacity="1" class="highcharts-point" tabindex="-1" role="img" aria-label="Wednesday,  1 Apr, 01:00, 3.94. U.S. CBO Model." style="outline: none;"></path>
      <path fill="#AA4643" d="M 836 222.71 L 840 222.71 L 840 224.43 L 836 224.43 Z" stroke="#ffffff" stroke-width="0" opacity="1" class="highcharts-point" tabindex="-1" role="img" aria-label="Wednesday,  1 Jul, 01:00, 3.93. U.S. CBO Model." style="outline: none;"></path>
      <path fill="#AA4643" d="M 906 224.00 L 910 224.00 L 910 225.71 L 906 225.71 Z" stroke="#ffffff" stroke-width="0" opacity="1" class="highcharts-point" tabindex="-1" role="img" aria-label="Thursday,  1 Oct, 01:00, 3.92. U.S. CBO Model." style="outline: none;"></path>
      <path fill="#AA4643" d="M 976 224.00 L 980 224.00 L 980 225.71 L 976 225.71 Z" stroke="#ffffff" stroke-width="0" opacity="1" class="highcharts-point" tabindex="-1" role="img" aria-label="Friday,  1 Jan, 01:00, 3.92. U.S. CBO Model." style="outline: none;"></path>
      <path fill="#AA4643" d="M 1045 224.00 L 1049 224.00 L 1049 225.71 L 1045 225.71 Z" stroke="#ffffff" stroke-width="0" opacity="1" class="highcharts-point" tabindex="-1" role="img" aria-label="Thursday,  1 Apr, 01:00, 3.92. U.S. CBO Model." style="outline: none;"></path>
    </g>
    <g class="highcharts-series highcharts-series-2 highcharts-line-series" data-z-index="1" opacity="2" transform="translate(76,53) scale(1 1)" clip-path="url(#highcharts-wkb9yzu-489-)" aria-hidden="true">
      <path fill="none" d="M 490.57252199153 155.24 L 559.95924341522 155.24 L 630.10845628311 155.24 L 700.28943962786 140.70 L 768.88189913048 140.70 L 838.26862055416 126.16 L 908.41783342206 126.16" class="highcharts-graph" data-z-index="1" stroke="#4572A7" stroke-width="2" stroke-dasharray="6,2" filter="none"></path>
    </g>
    <g class="highcharts-markers highcharts-series-2 highcharts-line-series" data-z-index="1" opacity="2" transform="translate(76,53) scale(1 1)" clip-path="none" aria-hidden="false" role="region" tabindex="-1" aria-label="Fannie Mae Forecast, line 3 of 7 with 7 data points." style="outline: none;">
      <path fill="#4572A7" d="M 488 154.57 L 492 154.57 L 492 156.29 L 488 156.29 Z" stroke="#ffffff" stroke-width="0" opacity="1" class="highcharts-point" tabindex="-1" role="img" aria-label="Tuesday,  1 Apr, 01:00, 4.4. Fannie Mae Forecast." style="outline: none;"></path>
      <path fill="#4572A7" d="M 557 154.57 L 561 154.57 L 561 156.29 L 557 156.29 Z" stroke="#ffffff" stroke-width="0" opacity="1" class="highcharts-point" tabindex="-1" role="img" aria-label="Tuesday,  1 Jul, 01:00, 4.4. Fannie Mae Forecast." style="outline: none;"></path>
      <path fill="#4572A7" d="M 628 154.57 L 632 154.57 L 632 156.29 L 628 156.29 Z" stroke="#ffffff" stroke-width="0" opacity="1" class="highcharts-point" tabindex="-1" role="img" aria-label="Wednesday,  1 Oct, 01:00, 4.4. Fannie Mae Forecast." style="outline: none;"></path>
      <path fill="#4572A7" d="M 698 140.00 L 702 140.00 L 702 141.71 L 698 141.71 Z" stroke="#ffffff" stroke-width="0" opacity="1" class="highcharts-point" tabindex="-1" role="img" aria-label="Thursday,  1 Jan, 01:00, 4.5. Fannie Mae Forecast." style="outline: none;"></path>
      <path fill="#4572A7" d="M 766 140.00 L 770 140.00 L 770 141.71 L 766 141.71 Z" stroke="#ffffff" stroke-width="0" opacity="1" class="highcharts-point" tabindex="-1" role="img" aria-label="Wednesday,  1 Apr, 01:00, 4.5. Fannie Mae Forecast." style="outline: none;"></path>
      <path fill="#4572A7" d="M 836 125.43 L 840 125.43 L 840 127.14 L 836 127.14 Z" stroke="#ffffff" stroke-width="0" opacity="1" class="highcharts-point" tabindex="-1" role="img" aria-label="Wednesday,  1 Jul, 01:00, 4.6. Fannie Mae Forecast." style="outline: none;"></path>
      <path fill="#4572A7" d="M 906 125.43 L 910 125.43 L 910 127.14 L 906 127.14 Z" stroke="#ffffff" stroke-width="0" opacity="1" class="highcharts-point" tabindex="-1" role="img" aria-label="Thursday,  1 Oct, 01:00, 4.6. Fannie Mae Forecast." style="outline: none;"></path>
    </g>
    <g class="highcharts-series highcharts-series-3 highcharts-line-series" data-z-index="1" opacity="2" transform="translate(76,53) scale(1 1)" clip-path="url(#highcharts-wkb9yzu-489-)" aria-hidden="true">
      <path fill="none" d="M 490.57252199153 166.88 L 559.95924341522 174.15 L 630.10845628311 184.33 L 700.28943962786 197.41 L 768.88189913048 198.87" class="highcharts-graph" data-z-index="1" stroke="#80699B" stroke-width="2" stroke-dasharray="6,2" filter="none"></path>
    </g>
    <g class="highcharts-markers highcharts-series-3 highcharts-line-series" data-z-index="1" opacity="2" transform="translate(76,53) scale(1 1)" clip-path="none" aria-hidden="false" role="region" tabindex="-1" aria-label="Survey of Professional Forecasters, line 4 of 7 with 5 data points." style="outline: none;">
      <path fill="#80699B" d="M 488 166.14 L 492 166.14 L 492 167.86 L 488 167.86 Z" stroke="#ffffff" stroke-width="0" opacity="1" class="highcharts-point" tabindex="-1" role="img" aria-label="Tuesday,  1 Apr, 01:00, 4.32. Survey of Professional Forecasters." style="outline: none;"></path>
      <path fill="#80699B" d="M 557 173.43 L 561 173.43 L 561 175.14 L 557 175.14 Z" stroke="#ffffff" stroke-width="0" opacity="1" class="highcharts-point" tabindex="-1" role="img" aria-label="Tuesday,  1 Jul, 01:00, 4.27. Survey of Professional Forecasters." style="outline: none;"></path>
      <path fill="#80699B" d="M 628 183.29 L 632 183.29 L 632 185.00 L 628 185.00 Z" stroke="#ffffff" stroke-width="0" opacity="1" class="highcharts-point" tabindex="-1" role="img" aria-label="Wednesday,  1 Oct, 01:00, 4.2. Survey of Professional Forecasters." style="outline: none;"></path>
      <path fill="#80699B" d="M 698 196.57 L 702 196.57 L 702 198.29 L 698 198.29 Z" stroke="#ffffff" stroke-width="0" opacity="1" class="highcharts-point" tabindex="-1" role="img" aria-label="Thursday,  1 Jan, 01:00, 4.11. Survey of Professional Forecasters." style="outline: none;"></path>
      <path fill="#80699B" d="M 766 197.86 L 770 197.86 L 770 199.57 L 766 199.57 Z" stroke="#ffffff" stroke-width="0" opacity="1" class="highcharts-point" tabindex="-1" role="img" aria-label="Wednesday,  1 Apr, 01:00, 4.1. Survey of Professional Forecasters." style="outline: none;"></path>
    </g>
    <g class="highcharts-series highcharts-series-4 highcharts-line-series" data-z-index="1" opacity="2" transform="translate(76,53) scale(1 1)" clip-path="url(#highcharts-wkb9yzu-489-)" aria-hidden="true">
      <path fill="none" d="M 490.57252199153 155.24 L 559.95924341522 169.79 L 630.10845628311 177.06 L 700.28943962786 177.06 L 768.88189913048 169.79 L 838.26862055416 162.52 L 908.41783342206 155.24" class="highcharts-graph" data-z-index="1" stroke="#3D96AE" stroke-width="2" stroke-dasharray="6,2" filter="none"></path>
    </g>
    <g class="highcharts-markers highcharts-series-4 highcharts-line-series" data-z-index="1" opacity="2" transform="translate(76,53) scale(1 1)" clip-path="none" aria-hidden="false" role="region" tabindex="-1" aria-label="Wells Fargo Economic Outlook, line 5 of 7 with 7 data points." style="outline: none;">
      <path fill="#3D96AE" d="M 488 154.57 L 492 154.57 L 492 156.29 L 488 156.29 Z" stroke="#ffffff" stroke-width="0" opacity="1" class="highcharts-point" tabindex="-1" role="img" aria-label="Tuesday,  1 Apr, 01:00, 4.4. Wells Fargo Economic Outlook." style="outline: none;"></path>
      <path fill="#3D96AE" d="M 557 169.14 L 561 169.14 L 561 170.86 L 557 170.86 Z" stroke="#ffffff" stroke-width="0" opacity="1" class="highcharts-point" tabindex="-1" role="img" aria-label="Tuesday,  1 Jul, 01:00, 4.3. Wells Fargo Economic Outlook." style="outline: none;"></path>
      <path fill="#3D96AE" d="M 628 176.00 L 632 176.00 L 632 177.71 L 628 177.71 Z" stroke="#ffffff" stroke-width="0" opacity="1" class="highcharts-point" tabindex="-1" role="img" aria-label="Wednesday,  1 Oct, 01:00, 4.25. Wells Fargo Economic Outlook." style="outline: none;"></path>
      <path fill="#3D96AE" d="M 698 176.00 L 702 176.00 L 702 177.71 L 698 177.71 Z" stroke="#ffffff" stroke-width="0" opacity="1" class="highcharts-point" tabindex="-1" role="img" aria-label="Thursday,  1 Jan, 01:00, 4.25. Wells Fargo Economic Outlook." style="outline: none;"></path>
      <path fill="#3D96AE" d="M 766 169.14 L 770 169.14 L 770 170.86 L 766 170.86 Z" stroke="#ffffff" stroke-width="0" opacity="1" class="highcharts-point" tabindex="-1" role="img" aria-label="Wednesday,  1 Apr, 01:00, 4.3. Wells Fargo Economic Outlook." style="outline: none;"></path>
      <path fill="#3D96AE" d="M 836 161.86 L 840 161.86 L 840 163.57 L 836 163.57 Z" stroke="#ffffff" stroke-width="0" opacity="1" class="highcharts-point" tabindex="-1" role="img" aria-label="Wednesday,  1 Jul, 01:00, 4.35. Wells Fargo Economic Outlook." style="outline: none;"></path>
      <path fill="#3D96AE" d="M 906 154.57 L 910 154.57 L 910 156.29 L 906 156.29 Z" stroke="#ffffff" stroke-width="0" opacity="1" class="highcharts-point" tabindex="-1" role="img" aria-label="Thursday,  1 Oct, 01:00, 4.4. Wells Fargo Economic Outlook." style="outline: none;"></path>
    </g>
    <g class="highcharts-series highcharts-series-5 highcharts-line-series" data-z-index="1" opacity="2" transform="translate(76,53) scale(1 1)" clip-path="url(#highcharts-wkb9yzu-489-)" aria-hidden="true">
      <path fill="none" d="M 490.57252199153 203.23 L 559.95924341522 203.23 L 630.10845628311 201.78 L 700.28943962786 201.78 L 768.88189913048 201.78 L 838.26862055416 200.32 L 908.41783342206 198.87 L 978.5988167668 198.87 L 1047.1912762694 197.41 L 1116.5779976931 197.41" class="highcharts-graph" data-z-index="1" stroke="#DB843D" stroke-width="2" stroke-dasharray="6,2" filter="none"></path>
    </g>
    <g class="highcharts-markers highcharts-series-5 highcharts-line-series" data-z-index="1" opacity="2" transform="translate(76,53) scale(1 1)" clip-path="none" aria-hidden="false" role="region" tabindex="-1" aria-label="WSJ Economic Survey, line 6 of 7 with 10 data points." style="outline: none;">
      <path fill="#DB843D" d="M 488 202.57 L 492 202.57 L 492 204.29 L 488 204.29 Z" stroke="#ffffff" stroke-width="0" opacity="1" class="highcharts-point" tabindex="-1" role="img" aria-label="Tuesday,  1 Apr, 01:00, 4.07. WSJ Economic Survey." style="outline: none;"></path>
      <path fill="#DB843D" d="M 557 202.57 L 561 202.57 L 561 204.29 L 557 204.29 Z" stroke="#ffffff" stroke-width="0" opacity="1" class="highcharts-point" tabindex="-1" role="img" aria-label="Tuesday,  1 Jul, 01:00, 4.07. WSJ Economic Survey." style="outline: none;"></path>
      <path fill="#DB843D" d="M 628 200.86 L 632 200.86 L 632 202.57 L 628 202.57 Z" stroke="#ffffff" stroke-width="0" opacity="1" class="highcharts-point" tabindex="-1" role="img" aria-label="Wednesday,  1 Oct, 01:00, 4.08. WSJ Economic Survey." style="outline: none;"></path>
      <path fill="#DB843D" d="M 698 200.86 L 702 200.86 L 702 202.57 L 698 202.57 Z" stroke="#ffffff" stroke-width="0" opacity="1" class="highcharts-point" tabindex="-1" role="img" aria-label="Thursday,  1 Jan, 01:00, 4.08. WSJ Economic Survey." style="outline: none;"></path>
      <path fill="#DB843D" d="M 766 200.86 L 770 200.86 L 770 202.57 L 766 202.57 Z" stroke="#ffffff" stroke-width="0" opacity="1" class="highcharts-point" tabindex="-1" role="img" aria-label="Wednesday,  1 Apr, 01:00, 4.08. WSJ Economic Survey." style="outline: none;"></path>
      <path fill="#DB843D" d="M 836 199.57 L 840 199.57 L 840 201.29 L 836 201.29 Z" stroke="#ffffff" stroke-width="0" opacity="1" class="highcharts-point" tabindex="-1" role="img" aria-label="Wednesday,  1 Jul, 01:00, 4.09. WSJ Economic Survey." style="outline: none;"></path>
      <path fill="#DB843D" d="M 906 197.86 L 910 197.86 L 910 199.57 L 906 199.57 Z" stroke="#ffffff" stroke-width="0" opacity="1" class="highcharts-point" tabindex="-1" role="img" aria-label="Thursday,  1 Oct, 01:00, 4.1. WSJ Economic Survey." style="outline: none;"></path>
      <path fill="#DB843D" d="M 976 197.86 L 980 197.86 L 980 199.57 L 976 199.57 Z" stroke="#ffffff" stroke-width="0" opacity="1" class="highcharts-point" tabindex="-1" role="img" aria-label="Friday,  1 Jan, 01:00, 4.1. WSJ Economic Survey." style="outline: none;"></path>
      <path fill="#DB843D" d="M 1045 196.57 L 1049 196.57 L 1049 198.29 L 1045 198.29 Z" stroke="#ffffff" stroke-width="0" opacity="1" class="highcharts-point" tabindex="-1" role="img" aria-label="Thursday,  1 Apr, 01:00, 4.11. WSJ Economic Survey." style="outline: none;"></path>
    </g>
    <g class="highcharts-series highcharts-series-0 highcharts-line-series" data-z-index="3" opacity="2" transform="translate(76,53) scale(1 1)" clip-path="url(#highcharts-wkb9yzu-489-)" aria-hidden="true">
      <path fill="none" d="M 537.08450008873 146.52 L 559.95924341522 118.89 L 583.59647818592 108.71 L 607.23371295663 120.35 L 630.10845628311 136.34 L 653.74569105382 149.43 L 676.65220485715 153.79 L 700.28943962786 149.43 L 723.92667439856 152.34 L 745.27643483662 150.88 L 768.88189913048 158.15 L 791.75664245697 166.88 L 815.39387722767 172.69 L 838.26862055416 184.33 L 861.90585532487 195.96 L 885.54309009557 201.78 L 908.41783342206 210.50 L 932.05506819276 216.32 L 954.9615819961 219.22 L 978.5988167668 223.59 L 1002.2360515375 225.04 L 1023.5858119756 220.68 L 1047.1912762694 217.77 L 1070.0660195959 211.95 L 1093.7032543666 206.14 L 1116.5779976931 206.14" class="highcharts-graph" data-z-index="1" stroke="#0ba828" stroke-width="2" stroke-dasharray="6,2" filter="none"></path>
    </g>
    <g class="highcharts-markers highcharts-series-0 highcharts-line-series" data-z-index="3" opacity="2" transform="translate(76,53) scale(1 1)" clip-path="none" aria-hidden="false" role="region" tabindex="-1" aria-label="Market Consensus Forecast, line 1 of 7 with 26 data points." style="outline: none;">
      <path fill="#0ba828" d="M 535 145.57 L 539 145.57 L 539 147.29 L 535 147.29 Z" stroke="#ffffff" stroke-width="0" opacity="1" class="highcharts-point" tabindex="-1" role="img" aria-label="Sunday,  1 Jun, 01:00, 4.46. Market Consensus Forecast." style="outline: none;"></path>
      <path fill="#0ba828" d="M 557 118.14 L 561 118.14 L 561 119.86 L 557 119.86 Z" stroke="#ffffff" stroke-width="0" opacity="1" class="highcharts-point" tabindex="-1" role="img" aria-label="Tuesday,  1 Jul, 01:00, 4.65. Market Consensus Forecast." style="outline: none;"></path>
      <path fill="#0ba828" d="M 581 107.86 L 585 107.86 L 585 109.57 L 581 109.57 Z" stroke="#ffffff" stroke-width="0" opacity="1" class="highcharts-point" tabindex="-1" role="img" aria-label="Friday,  1 Aug, 01:00, 4.72. Market Consensus Forecast." style="outline: none;"></path>
      <path fill="#0ba828" d="M 605 119.43 L 609 119.43 L 609 121.14 L 605 121.14 Z" stroke="#ffffff" stroke-width="0" opacity="1" class="highcharts-point" tabindex="-1" role="img" aria-label="Monday,  1 Sep, 01:00, 4.64. Market Consensus Forecast." style="outline: none;"></path>
      <path fill="#0ba828" d="M 628 135.29 L 632 135.29 L 632 137.00 L 628 137.00 Z" stroke="#ffffff" stroke-width="0" opacity="1" class="highcharts-point" tabindex="-1" role="img" aria-label="Wednesday,  1 Oct, 01:00, 4.53. Market Consensus Forecast." style="outline: none;"></path>
      <path fill="#0ba828" d="M 651 148.57 L 655 148.57 L 655 150.29 L 651 150.29 Z" stroke="#ffffff" stroke-width="0" opacity="1" class="highcharts-point" tabindex="-1" role="img" aria-label="Saturday,  1 Nov, 01:00, 4.44. Market Consensus Forecast." style="outline: none;"></path>
      <path fill="#0ba828" d="M 674 152.86 L 678 152.86 L 678 154.57 L 674 154.57 Z" stroke="#ffffff" stroke-width="0" opacity="1" class="highcharts-point" tabindex="-1" role="img" aria-label="Monday,  1 Dec, 01:00, 4.41. Market Consensus Forecast." style="outline: none;"></path>
      <path fill="#0ba828" d="M 698 148.57 L 702 148.57 L 702 150.29 L 698 150.29 Z" stroke="#ffffff" stroke-width="0" opacity="1" class="highcharts-point" tabindex="-1" role="img" aria-label="Thursday,  1 Jan, 01:00, 4.44. Market Consensus Forecast." style="outline: none;"></path>
      <path fill="#0ba828" d="M 721 151.57 L 725 151.57 L 725 153.29 L 721 153.29 Z" stroke="#ffffff" stroke-width="0" opacity="1" class="highcharts-point" tabindex="-1" role="img" aria-label="Sunday,  1 Feb, 01:00, 4.42. Market Consensus Forecast." style="outline: none;"></path>
      <path fill="#0ba828" d="M 743 149.86 L 747 149.86 L 747 151.57 L 743 151.57 Z" stroke="#ffffff" stroke-width="0" opacity="1" class="highcharts-point" tabindex="-1" role="img" aria-label="Sunday,  1 Mar, 01:00, 4.43. Market Consensus Forecast." style="outline: none;"></path>
      <path fill="#0ba828" d="M 766 157.14 L 770 157.14 L 770 158.86 L 766 158.86 Z" stroke="#ffffff" stroke-width="0" opacity="1" class="highcharts-point" tabindex="-1" role="img" aria-label="Wednesday,  1 Apr, 01:00, 4.38. Market Consensus Forecast." style="outline: none;"></path>
      <path fill="#0ba828" d="M 789 166.14 L 793 166.14 L 793 167.86 L 789 167.86 Z" stroke="#ffffff" stroke-width="0" opacity="1" class="highcharts-point" tabindex="-1" role="img" aria-label="Friday,  1 May, 01:00, 4.32. Market Consensus Forecast." style="outline: none;"></path>
      <path fill="#0ba828" d="M 813 171.71 L 817 171.71 L 817 173.43 L 813 173.43 Z" stroke="#ffffff" stroke-width="0" opacity="1" class="highcharts-point" tabindex="-1" role="img" aria-label="Monday,  1 Jun, 01:00, 4.28. Market Consensus Forecast." style="outline: none;"></path>
      <path fill="#0ba828" d="M 836 183.29 L 840 183.29 L 840 185.00 L 836 185.00 Z" stroke="#ffffff" stroke-width="0" opacity="1" class="highcharts-point" tabindex="-1" role="img" aria-label="Wednesday,  1 Jul, 01:00, 4.2. Market Consensus Forecast." style="outline: none;"></path>
      <path fill="#0ba828" d="M 859 195.29 L 863 195.29 L 863 197.00 L 859 197.00 Z" stroke="#ffffff" stroke-width="0" opacity="1" class="highcharts-point" tabindex="-1" role="img" aria-label="Saturday,  1 Aug, 01:00, 4.12. Market Consensus Forecast." style="outline: none;"></path>
      <path fill="#0ba828" d="M 883 200.86 L 887 200.86 L 887 202.57 L 883 202.57 Z" stroke="#ffffff" stroke-width="0" opacity="1" class="highcharts-point" tabindex="-1" role="img" aria-label="Tuesday,  1 Sep, 01:00, 4.08. Market Consensus Forecast." style="outline: none;"></path>
      <path fill="#0ba828" d="M 906 209.86 L 910 209.86 L 910 211.57 L 906 211.57 Z" stroke="#ffffff" stroke-width="0" opacity="1" class="highcharts-point" tabindex="-1" role="img" aria-label="Thursday,  1 Oct, 01:00, 4.02. Market Consensus Forecast." style="outline: none;"></path>
      <path fill="#0ba828" d="M 930 215.43 L 934 215.43 L 934 217.14 L 930 217.14 Z" stroke="#ffffff" stroke-width="0" opacity="1" class="highcharts-point" tabindex="-1" role="img" aria-label="Sunday,  1 Nov, 01:00, 3.98. Market Consensus Forecast." style="outline: none;"></path>
      <path fill="#0ba828" d="M 952 218.43 L 956 218.43 L 956 220.14 L 952 220.14 Z" stroke="#ffffff" stroke-width="0" opacity="1" class="highcharts-point" tabindex="-1" role="img" aria-label="Tuesday,  1 Dec, 01:00, 3.96. Market Consensus Forecast." style="outline: none;"></path>
      <path fill="#0ba828" d="M 976 222.71 L 980 222.71 L 980 224.43 L 976 224.43 Z" stroke="#ffffff" stroke-width="0" opacity="1" class="highcharts-point" tabindex="-1" role="img" aria-label="Friday,  1 Jan, 01:00, 3.93. Market Consensus Forecast." style="outline: none;"></path>
      <path fill="#0ba828" d="M 1000 224.00 L 1004 224.00 L 1004 225.71 L 1000 225.71 Z" stroke="#ffffff" stroke-width="0" opacity="1" class="highcharts-point" tabindex="-1" role="img" aria-label="Monday,  1 Feb, 01:00, 3.92. Market Consensus Forecast." style="outline: none;"></path>
      <path fill="#0ba828" d="M 1021 219.71 L 1025 219.71 L 1025 221.43 L 1021 221.43 Z" stroke="#ffffff" stroke-width="0" opacity="1" class="highcharts-point" tabindex="-1" role="img" aria-label="Monday,  1 Mar, 01:00, 3.95. Market Consensus Forecast." style="outline: none;"></path>
      <path fill="#0ba828" d="M 1045 216.71 L 1049 216.71 L 1049 218.43 L 1045 218.43 Z" stroke="#ffffff" stroke-width="0" opacity="1" class="highcharts-point" tabindex="-1" role="img" aria-label="Thursday,  1 Apr, 01:00, 3.97. Market Consensus Forecast." style="outline: none;"></path>
      <path fill="#0ba828" d="M 1068 211.14 L 1072 211.14 L 1072 212.86 L 1068 212.86 Z" stroke="#ffffff" stroke-width="0" opacity="1" class="highcharts-point" tabindex="-1" role="img" aria-label="Saturday,  1 May, 01:00, 4.01. Market Consensus Forecast." style="outline: none;"></path>
      <path fill="#0ba828" d="M 1091 205.14 L 1095 205.14 L 1095 206.86 L 1091 206.86 Z" stroke="#ffffff" stroke-width="0" opacity="1" class="highcharts-point" tabindex="-1" role="img" aria-label="Tuesday,  1 Jun, 01:00, 4.05. Market Consensus Forecast." style="outline: none;"></path>
    </g>
    <g class="highcharts-series highcharts-series-6 highcharts-line-series" data-z-index="3" opacity="2" transform="translate(76,53) scale(1 1)" clip-path="url(#highcharts-wkb9yzu-489-)" aria-hidden="true">
      <path fill="none" d="M -20.296745633381 249.76 L 2.5779976931072 227.95 L 26.215232463812 188.69 L 49.852467234517 158.15 L 72.727210561006 97.08 L 96.364445331711 140.70 L 119.27095913504 210.50 L 142.90819390575 204.68 L 166.54542867645 182.87 L 188.65768055872 182.87 L 212.26314485259 134.89 L 235.13788817908 143.61 L 258.77512294978 168.33 L 281.64986627627 177.06 L 305.28710104697 232.31 L 328.92433581768 254.12 L 351.79907914417 198.87 L 375.43631391487 161.06 L 398.3428277182 156.70 L 421.98006248891 121.80 L 445.61729725961 147.97 L 466.96705769767 172.69 L 490.57252199153 172.69 L 513.44726531802 152.34 L 537.08450008873 153.79" class="highcharts-graph" data-z-index="1" stroke="#344D56" stroke-width="3" stroke-dasharray="none" filter="none"></path>
    </g>
    <g class="highcharts-markers highcharts-series-6 highcharts-line-series" data-z-index="3" opacity="2" transform="translate(76,53) scale(1 1)" clip-path="none" aria-hidden="false" role="region" tabindex="-1" aria-label="Historical Data, line 7 of 7 with 25 data points." style="outline: none;">
      <path fill="#344D56" d="M 0 227.00 L 4 227.00 L 4 228.71 L 0 228.71 Z" stroke="#ffffff" stroke-width="0" opacity="1" class="highcharts-point" tabindex="-1" role="img" aria-label="Saturday,  1 Jul, 01:00, 3.9. Historical Data." style="outline: none;"></path>
      <path fill="#344D56" d="M 24 188.00 L 28 188.00 L 28 189.71 L 24 189.71 Z" stroke="#ffffff" stroke-width="0" opacity="1" class="highcharts-point" tabindex="-1" role="img" aria-label="Tuesday,  1 Aug, 01:00, 4.17. Historical Data." style="outline: none;"></path>
      <path fill="#344D56" d="M 47 157.14 L 51 157.14 L 51 158.86 L 47 158.86 Z" stroke="#ffffff" stroke-width="0" opacity="1" class="highcharts-point" tabindex="-1" role="img" aria-label="Friday,  1 Sep, 01:00, 4.38. Historical Data." style="outline: none;"></path>
      <path fill="#344D56" d="M 70 96.29 L 74 96.29 L 74 98.00 L 70 98.00 Z" stroke="#ffffff" stroke-width="0" opacity="1" class="highcharts-point" tabindex="-1" role="img" aria-label="Sunday,  1 Oct, 01:00, 4.8. Historical Data." style="outline: none;"></path>
      <path fill="#344D56" d="M 94 140.00 L 98 140.00 L 98 141.71 L 94 141.71 Z" stroke="#ffffff" stroke-width="0" opacity="1" class="highcharts-point" tabindex="-1" role="img" aria-label="Wednesday,  1 Nov, 01:00, 4.5. Historical Data." style="outline: none;"></path>
      <path fill="#344D56" d="M 117 209.86 L 121 209.86 L 121 211.57 L 117 211.57 Z" stroke="#ffffff" stroke-width="0" opacity="1" class="highcharts-point" tabindex="-1" role="img" aria-label="Friday,  1 Dec, 01:00, 4.02. Historical Data." style="outline: none;"></path>
      <path fill="#344D56" d="M 140 203.86 L 144 203.86 L 144 205.57 L 140 205.57 Z" stroke="#ffffff" stroke-width="0" opacity="1" class="highcharts-point" tabindex="-1" role="img" aria-label="Monday,  1 Jan, 01:00, 4.06. Historical Data." style="outline: none;"></path>
      <path fill="#344D56" d="M 164 182.00 L 168 182.00 L 168 183.71 L 164 183.71 Z" stroke="#ffffff" stroke-width="0" opacity="1" class="highcharts-point" tabindex="-1" role="img" aria-label="Thursday,  1 Feb, 01:00, 4.21. Historical Data." style="outline: none;"></path>
      <path fill="#344D56" d="M 186 182.00 L 190 182.00 L 190 183.71 L 186 183.71 Z" stroke="#ffffff" stroke-width="0" opacity="1" class="highcharts-point" tabindex="-1" role="img" aria-label="Friday,  1 Mar, 01:00, 4.21. Historical Data." style="outline: none;"></path>
      <path fill="#344D56" d="M 210 134.00 L 214 134.00 L 214 135.71 L 210 135.71 Z" stroke="#ffffff" stroke-width="0" opacity="1" class="highcharts-point" tabindex="-1" role="img" aria-label="Monday,  1 Apr, 01:00, 4.54. Historical Data." style="outline: none;"></path>
      <path fill="#344D56" d="M 233 142.57 L 237 142.57 L 237 144.29 L 233 144.29 Z" stroke="#ffffff" stroke-width="0" opacity="1" class="highcharts-point" tabindex="-1" role="img" aria-label="Wednesday,  1 May, 01:00, 4.48. Historical Data." style="outline: none;"></path>
      <path fill="#344D56" d="M 256 167.43 L 260 167.43 L 260 169.14 L 256 169.14 Z" stroke="#ffffff" stroke-width="0" opacity="1" class="highcharts-point" tabindex="-1" role="img" aria-label="Saturday,  1 Jun, 01:00, 4.31. Historical Data." style="outline: none;"></path>
      <path fill="#344D56" d="M 279 176.00 L 283 176.00 L 283 177.71 L 279 177.71 Z" stroke="#ffffff" stroke-width="0" opacity="1" class="highcharts-point" tabindex="-1" role="img" aria-label="Monday,  1 Jul, 01:00, 4.25. Historical Data." style="outline: none;"></path>
      <path fill="#344D56" d="M 303 231.29 L 307 231.29 L 307 233.00 L 303 233.00 Z" stroke="#ffffff" stroke-width="0" opacity="1" class="highcharts-point" tabindex="-1" role="img" aria-label="Thursday,  1 Aug, 01:00, 3.87. Historical Data." style="outline: none;"></path>
      <path fill="#344D56" d="M 326 253.14 L 330 253.14 L 330 254.86 L 326 254.86 Z" stroke="#ffffff" stroke-width="0" opacity="1" class="highcharts-point" tabindex="-1" role="img" aria-label="Sunday,  1 Sep, 01:00, 3.72. Historical Data." style="outline: none;"></path>
      <path fill="#344D56" d="M 349 197.86 L 353 197.86 L 353 199.57 L 349 199.57 Z" stroke="#ffffff" stroke-width="0" opacity="1" class="highcharts-point" tabindex="-1" role="img" aria-label="Tuesday,  1 Oct, 01:00, 4.1. Historical Data." style="outline: none;"></path>
      <path fill="#344D56" d="M 373 160.14 L 377 160.14 L 377 161.86 L 373 161.86 Z" stroke="#ffffff" stroke-width="0" opacity="1" class="highcharts-point" tabindex="-1" role="img" aria-label="Friday,  1 Nov, 01:00, 4.36. Historical Data." style="outline: none;"></path>
      <path fill="#344D56" d="M 396 155.86 L 400 155.86 L 400 157.57 L 396 157.57 Z" stroke="#ffffff" stroke-width="0" opacity="1" class="highcharts-point" tabindex="-1" role="img" aria-label="Sunday,  1 Dec, 01:00, 4.39. Historical Data." style="outline: none;"></path>
      <path fill="#344D56" d="M 419 121.14 L 423 121.14 L 423 122.86 L 419 122.86 Z" stroke="#ffffff" stroke-width="0" opacity="1" class="highcharts-point" tabindex="-1" role="img" aria-label="Wednesday,  1 Jan, 01:00, 4.63. Historical Data." style="outline: none;"></path>
      <path fill="#344D56" d="M 443 147.29 L 447 147.29 L 447 149.00 L 443 149.00 Z" stroke="#ffffff" stroke-width="0" opacity="1" class="highcharts-point" tabindex="-1" role="img" aria-label="Saturday,  1 Feb, 01:00, 4.45. Historical Data." style="outline: none;"></path>
      <path fill="#344D56" d="M 464 171.71 L 468 171.71 L 468 173.43 L 464 173.43 Z" stroke="#ffffff" stroke-width="0" opacity="1" class="highcharts-point" tabindex="-1" role="img" aria-label="Saturday,  1 Mar, 01:00, 4.28. Historical Data." style="outline: none;"></path>
      <path fill="#344D56" d="M 488 171.71 L 492 171.71 L 492 173.43 L 488 173.43 Z" stroke="#ffffff" stroke-width="0" opacity="1" class="highcharts-point" tabindex="-1" role="img" aria-label="Tuesday,  1 Apr, 01:00, 4.28. Historical Data." style="outline: none;"></path>
      <path fill="#344D56" d="M 511 151.57 L 515 151.57 L 515 153.29 L 511 153.29 Z" stroke="#ffffff" stroke-width="0" opacity="1" class="highcharts-point" tabindex="-1" role="img" aria-label="Thursday,  1 May, 01:00, 4.42. Historical Data." style="outline: none;"></path>
      <path fill="#344D56" d="M 535 152.86 L 539 152.86 L 539 154.57 L 535 154.57 Z" stroke="#ffffff" stroke-width="0" opacity="1" class="highcharts-point" tabindex="-1" role="img" aria-label="Sunday,  1 Jun, 01:00, 4.41. Historical Data." style="outline: none;"></path>
    </g>
    <g class="highcharts-series custom-dns-series">
      <path d="M 658.04 181.88 L 681.68 188.81 L 705.31 195.52 L 728.19 202.01 L 751.83 208.31 L 774.70 214.40 L 798.34 220.33 L 820.45 226.08 L 843.33 231.68 L 866.96 237.11 L 889.84 242.40 L 913.47 247.55 L 936.35 252.56 L 959.99 257.44 L 983.62 262.19 L 1006.50 266.81 L 1030.14 271.31 L 1053.01 275.70 L 1076.65 279.96 L 1098.76 284.11 L 1121.63 288.15 L 1145.27 292.07 L 1168.15 295.89 L 1191.78 299.61" stroke="purple" stroke-width="3" fill="none" stroke-dasharray="8,4" />
    </g>
    <g class="highcharts-series custom-cpidns-series">
      <path d="M 658.04 195.04 L 681.68 193.38 L 705.31 191.22 L 728.19 188.60 L 751.83 185.51 L 774.70 181.96 L 798.34 177.98 L 820.45 173.56 L 843.33 179.15 L 866.96 184.59 L 889.84 189.89 L 913.47 195.03 L 936.35 200.04 L 959.99 204.92 L 983.62 209.67 L 1006.50 214.29 L 1030.14 218.80 L 1053.01 223.18 L 1076.65 227.44 L 1098.76 231.59 L 1121.63 235.63 L 1145.27 239.56 L 1168.15 243.38 L 1191.78 247.09" stroke="orange" stroke-width="3" fill="none" />
    </g>
    <g class="highcharts-series custom-dcm-series">
      <path d="M 658.04 255.36 L 680.91 262.29 L 705.31 286.15 L 728.19 309.79 L 750.30 316.08 L 774.70 339.33 L 798.34 345.25 L 819.69 351.01 L 843.33 373.75 L 866.96 379.19 L 889.07 384.47 L 913.47 389.63 L 936.35 411.78 L 958.46 416.66 L 983.62 421.41 L 1006.50 426.03 L 1030.14 430.54 L 1053.01 434.92 L 1075.89 439.18 L 1097.23 443.33 L 1121.63 447.37 L 1145.27 451.30 L 1166.62 455.12 L 1191.78 458.83" stroke="green" stroke-width="3" fill="none" />
    </g>
  </g>
  <g class="highcharts-label highcharts-series-label highcharts-series-label-0 highcharts-color-none" opacity="1" data-z-index="3" transform="translate(663.00, 124.14)" aria-hidden="true">
    <path fill="none" class="highcharts-label-box" d="M 0 68.00" stroke="#0ba828" stroke-width="1"></path>
    <text x="0" data-z-index="1" y="12" style="color: rgb(11, 168, 40); font-size: 0.8em; font-weight: bold; fill: rgb(11, 168, 40);">Market Consensus Forecast 06/27</text>
  </g>
  <g class="highcharts-label highcharts-series-label highcharts-series-label-1 highcharts-color-none" opacity="1" data-z-index="3" transform="translate(1051.00, 250.14)" aria-hidden="true">
    <path fill="none" class="highcharts-label-box" d="M 0 68.00" stroke="#AA4643" stroke-width="1"></path>
    <text x="0" data-z-index="1" y="12" style="color: rgb(170, 70, 67); font-size: 0.8em; font-weight: bold; fill: rgb(170, 70, 67);">U.S. CBO Model 01/17</text>
  </g>
  <g class="highcharts-label highcharts-series-label highcharts-series-label-2 highcharts-color-none" opacity="1" data-z-index="3" transform="translate(779.00, 164.86)" aria-hidden="true">
    <path fill="none" class="highcharts-label-box" d="M 0 68.00" stroke="#4572A7" stroke-width="1"></path>
    <text x="0" data-z-index="1" y="12" style="color: rgb(69, 114, 167); font-size: 0.8em; font-weight: bold; fill: rgb(69, 114, 167);">Fannie Mae Forecast 06/23</text>
  </g>
  <g class="highcharts-label highcharts-series-label highcharts-series-label-4 highcharts-color-none" opacity="1" data-z-index="3" transform="translate(611.00, 179.43)" aria-hidden="true">
    <path fill="none" class="highcharts-label-box" d="M 0 68.00" stroke="#3D96AE" stroke-width="1"></path>
    <text x="0" data-z-index="1" y="12" style="color: rgb(61, 150, 174); font-size: 0.8em; font-weight: bold; fill: rgb(61, 150, 174);">Wells Fargo Economic Outlook 06/11</text>
  </g>
  <g class="highcharts-label highcharts-series-label highcharts-series-label-5 highcharts-color-none" opacity="1" data-z-index="3" transform="translate(793.00, 225.71)" aria-hidden="true">
    <path fill="none" class="highcharts-label-box" d="M 0 68.00" stroke="#DB843D" stroke-width="1"></path>
    <text x="0" data-z-index="1" y="12" style="color: rgb(219, 132, 61); font-size: 0.8em; font-weight: bold; fill: rgb(219, 132, 61);">WSJ Economic Survey 04/12</text>
  </g>
  <g class="highcharts-label highcharts-series-label highcharts-series-label-6 highcharts-color-none" opacity="1" data-z-index="3" transform="translate(546.00, 196.57)" aria-hidden="true">
    <path fill="none" class="highcharts-label-box" d="M 0 68.00" stroke="#344D56" stroke-width="1"></path>
    <text x="0" data-z-index="1" y="12" style="color: rgb(52, 77, 86); font-size: 0.8em; font-weight: bold; fill: rgb(52, 77, 86);">Historical Data</text>
  </g>
  <text x="600" text-anchor="middle" class="highcharts-title" data-z-index="4" style="font-size: 1.1rem; color: rgb(15, 23, 42); font-weight: normal; fill: rgb(15, 23, 42);" y="27" aria-hidden="true">10 Year Treasury Note Yield</text>
  <text x="10" text-anchor="start" class="highcharts-subtitle" data-z-index="4" style="color: rgb(51, 65, 85); font-size: 0.8em; fill: rgb(51, 65, 85);" y="47" aria-hidden="true"></text>
  <text x="1190" text-anchor="end" class="highcharts-caption" data-z-index="4" style="color: rgb(102, 102, 102); font-size: 0.75rem; fill: rgb(102, 102, 102);" y="583" aria-hidden="true">https://econforecasting.com and FTS DNS Model</text>
  <g class="highcharts-axis-labels highcharts-xaxis-labels" data-z-index="7" aria-hidden="true">
    <text x="125.82069675767" text-anchor="middle" transform="translate(0,0)" style="color: rgb(51, 65, 85); cursor: default; font-size: 0.8em; fill: rgb(51, 65, 85);" y="555" opacity="1">09/2023</text>
    <text x="218.8764234289" text-anchor="middle" transform="translate(0,0)" style="color: rgb(51, 65, 85); cursor: default; font-size: 0.8em; fill: rgb(51, 65, 85);" y="555" opacity="1">01/2024</text>
    <text x="311.10611770223" text-anchor="middle" transform="translate(0,0)" style="color: rgb(51, 65, 85); cursor: default; font-size: 0.8em; fill: rgb(51, 65, 85);" y="555" opacity="1">05/2024</text>
    <text x="404.89256534084" text-anchor="middle" transform="translate(0,0)" style="color: rgb(51, 65, 85); cursor: default; font-size: 0.8em; fill: rgb(51, 65, 85);" y="555" opacity="1">09/2024</text>
    <text x="497.94829201207" text-anchor="middle" transform="translate(0,0)" style="color: rgb(51, 65, 85); cursor: default; font-size: 0.8em; fill: rgb(51, 65, 85);" y="555" opacity="1">01/2025</text>
    <text x="589.41549484118" text-anchor="middle" transform="translate(0,0)" style="color: rgb(51, 65, 85); cursor: default; font-size: 0.8em; fill: rgb(51, 65, 85);" y="555" opacity="1">05/2025</text>
    <text x="683.20194247978" text-anchor="middle" transform="translate(0,0)" style="color: rgb(51, 65, 85); cursor: default; font-size: 0.8em; fill: rgb(51, 65, 85);" y="555" opacity="1">09/2025</text>
    <text x="776.25766915101" text-anchor="middle" transform="translate(0,0)" style="color: rgb(51, 65, 85); cursor: default; font-size: 0.8em; fill: rgb(51, 65, 85);" y="555" opacity="1">01/2026</text>
    <text x="867.72487198013" text-anchor="middle" transform="translate(0,0)" style="color: rgb(51, 65, 85); cursor: default; font-size: 0.8em; fill: rgb(51, 65, 85);" y="555" opacity="1">05/2026</text>
    <text x="961.51131961873" text-anchor="middle" transform="translate(0,0)" style="color: rgb(51, 65, 85); cursor: default; font-size: 0.8em; fill: rgb(51, 65, 85);" y="555" opacity="1">09/2026</text>
    <text x="1054.56704629" text-anchor="middle" transform="translate(0,0)" style="color: rgb(51, 65, 85); cursor: default; font-size: 0.8em; fill: rgb(51, 65, 85);" y="555" opacity="1">01/2027</text>
    <text x="1146.0342491191" text-anchor="middle" transform="translate(0,0)" style="color: rgb(51, 65, 85); cursor: default; font-size: 0.8em; fill: rgb(51, 65, 85);" y="555" opacity="1">05/2027</text>
  </g>
  <g class="highcharts-axis-labels highcharts-yaxis-labels" data-z-index="7" aria-hidden="true">
    <text x="61" text-anchor="end" transform="translate(0,0)" style="color: rgb(51, 65, 85); cursor: default; font-size: 0.8em; fill: rgb(51, 65, 85);" y="526" opacity="1">2.0%</text>
    <text x="61" text-anchor="end" transform="translate(0,0)" style="color: rgb(51, 65, 85); cursor: default; font-size: 0.8em; fill: rgb(51, 65, 85);" y="458" opacity="1">2.5%</text>
    <text x="61" text-anchor="end" transform="translate(0,0)" style="color: rgb(51, 65, 85); cursor: default; font-size: 0.8em; fill: rgb(51, 65, 85);" y="390" opacity="1">2.9%</text>
    <text x="61" text-anchor="end" transform="translate(0,0)" style="color: rgb(51, 65, 85); cursor: default; font-size: 0.8em; fill: rgb(51, 65, 85);" y="322" opacity="1">3.4%</text>
    <text x="61" text-anchor="end" transform="translate(0,0)" style="color: rgb(51, 65, 85); cursor: default; font-size: 0.8em; fill: rgb(51, 65, 85);" y="255" opacity="1">3.9%</text>
    <text x="61" text-anchor="end" transform="translate(0,0)" style="color: rgb(51, 65, 85); cursor: default; font-size: 0.8em; fill: rgb(51, 65, 85);" y="187" opacity="1">4.3%</text>
    <text x="61" text-anchor="end" transform="translate(0,0)" style="color: rgb(51, 65, 85); cursor: default; font-size: 0.8em; fill: rgb(51, 65, 85);" y="119" opacity="1">4.8%</text>
    <text x="0" text-anchor="end" transform="translate(0,0)" style="color: rgb(51, 65, 85); cursor: default; font-size: 0.8em; fill: rgb(51, 65, 85);" visibility="hidden">5.3%</text>
  </g>
  <g class="highcharts-label highcharts-series-label" transform="translate(1141.78, 282.47)">
    <text x="0" y="12" style="color:purple;font-size:0.8em;font-weight:bold;fill:purple;">DNS Model</text>
  </g>
  <g class="highcharts-label highcharts-series-label" transform="translate(1141.78, 229.94)">
    <text x="0" y="12" style="color:orange;font-size:0.8em;font-weight:bold;fill:orange;">DNS-CPI</text>
  </g>
  <g class="highcharts-label highcharts-series-label" transform="translate(668.04, 248.93)">
    <text x="0" y="12" style="color:green;font-size:0.8em;font-weight:bold;fill:green;">DCM Model</text>
  </g>
</svg>